<svg width="23" height="22" viewBox="0 0 23 22" fill="none" xmlns="http://www.w3.org/2000/svg">
<path fill-rule="evenodd" clip-rule="evenodd" d="M20.5991 0.5C20.2237 0.5 19.8567 0.611113 19.5444 0.819337L14.4654 4.20533C13.1858 5.05835 12.0208 6.0624 10.9935 7.19218C13.1069 8.1839 14.8165 9.89354 15.8083 12.007C16.938 10.9797 17.9421 9.81461 18.7951 8.53508L22.1811 3.45609C22.3893 3.14375 22.5004 2.77677 22.5004 2.40139C22.5004 1.35128 21.6492 0.5 20.5991 0.5ZM12.3 14.5249C12.9573 14.1597 13.5902 13.7563 14.1959 13.3175C13.3841 11.258 11.7424 9.61637 9.68295 8.80456C9.2441 9.4102 8.84072 10.0432 8.47555 10.7005L8.19702 11.2018C9.93351 11.6985 11.302 13.0669 11.7986 14.8034L12.3 14.5249ZM6.75044 12.5C4.67935 12.5 3.00044 14.1789 3.00044 16.25C3.00044 17.0784 2.32887 17.75 1.50044 17.75C1.46648 17.75 1.43267 17.7489 1.39909 17.7466C1.12294 17.7284 0.85917 17.8637 0.712906 18.0986C0.566643 18.3336 0.561654 18.63 0.699929 18.8697C1.60573 20.4402 3.30386 21.5 5.25044 21.5C8.14995 21.5 10.5004 19.1495 10.5004 16.25C10.5004 14.1789 8.82153 12.5 6.75044 12.5Z" fill="#262626"/>
</svg>
