<svg width="17" height="18" viewBox="0 0 17 18" fill="none" xmlns="http://www.w3.org/2000/svg">
<path fill-rule="evenodd" clip-rule="evenodd" d="M8.5 0.875C4.01269 0.875 0.375 4.51269 0.375 9C0.375 13.4873 4.01269 17.125 8.5 17.125C12.9873 17.125 16.625 13.4873 16.625 9C16.625 4.51269 12.9873 0.875 8.5 0.875ZM9.125 4C9.125 3.65482 8.84518 3.375 8.5 3.375C8.15482 3.375 7.875 3.65482 7.875 4V9C7.875 9.34518 8.15482 9.625 8.5 9.625H12.25C12.5952 9.625 12.875 9.34518 12.875 9C12.875 8.65482 12.5952 8.375 12.25 8.375H9.125V4Z" fill="#262626"/>
</svg>
